<?xml version="1.0" encoding="UTF-8" standalone="no"?>
<!-- Created with Inkscape (http://www.inkscape.org/) -->

<svg
   xmlns:dc="http://purl.org/dc/elements/1.1/"
   xmlns:cc="http://creativecommons.org/ns#"
   xmlns:rdf="http://www.w3.org/1999/02/22-rdf-syntax-ns#"
   xmlns:svg="http://www.w3.org/2000/svg"
   xmlns="http://www.w3.org/2000/svg"
   version="1.2"
   width="1269.1064"
   height="600.12006"
   id="svg2">
  <defs
     id="defs4">
    <marker
       refX="0"
       refY="0"
       orient="auto"
       id="Arrow2Lend"
       style="overflow:visible">
      <path
         d="M 8.7185878,4.0337352 -2.2072895,0.01601326 8.7185884,-4.0017078 c -1.7454984,2.3720609 -1.7354408,5.6174519 -6e-7,8.035443 z"
         transform="matrix(-1.1,0,0,-1.1,-1.1,0)"
         id="path3808"
         style="fill-rule:evenodd;stroke-width:0.625;stroke-linejoin:round" />
    </marker>
    <marker
       refX="0"
       refY="0"
       orient="auto"
       id="Arrow2Lend-4"
       style="overflow:visible">
      <path
         d="M 8.7185878,4.0337352 -2.2072895,0.01601326 8.7185884,-4.0017078 c -1.7454984,2.3720609 -1.7354408,5.6174519 -6e-7,8.035443 z"
         transform="matrix(-1.1,0,0,-1.1,-1.1,0)"
         id="path3808-5"
         style="fill-rule:evenodd;stroke-width:0.625;stroke-linejoin:round" />
    </marker>
    <marker
       refX="0"
       refY="0"
       orient="auto"
       id="Arrow2Lend-3"
       style="overflow:visible">
      <path
         d="M 8.7185878,4.0337352 -2.2072895,0.01601326 8.7185884,-4.0017078 c -1.7454984,2.3720609 -1.7354408,5.6174519 -6e-7,8.035443 z"
         transform="matrix(-1.1,0,0,-1.1,-1.1,0)"
         id="path3808-1"
         style="fill-rule:evenodd;stroke-width:0.625;stroke-linejoin:round" />
    </marker>
    <marker
       refX="0"
       refY="0"
       orient="auto"
       id="Arrow2Lend-9"
       style="overflow:visible">
      <path
         d="M 8.7185878,4.0337352 -2.2072895,0.01601326 8.7185884,-4.0017078 c -1.7454984,2.3720609 -1.7354408,5.6174519 -6e-7,8.035443 z"
         transform="matrix(-1.1,0,0,-1.1,-1.1,0)"
         id="path3808-6"
         style="fill-rule:evenodd;stroke-width:0.625;stroke-linejoin:round" />
    </marker>
    <marker
       refX="0"
       refY="0"
       orient="auto"
       id="Arrow2Lend-7"
       style="overflow:visible">
      <path
         d="M 8.7185878,4.0337352 -2.2072895,0.01601326 8.7185884,-4.0017078 c -1.7454984,2.3720609 -1.7354408,5.6174519 -6e-7,8.035443 z"
         transform="matrix(-1.1,0,0,-1.1,-1.1,0)"
         id="path3808-2"
         style="fill-rule:evenodd;stroke-width:0.625;stroke-linejoin:round" />
    </marker>
    <marker
       refX="0"
       refY="0"
       orient="auto"
       id="Arrow2Lend-1"
       style="overflow:visible">
      <path
         d="M 8.7185878,4.0337352 -2.2072895,0.01601326 8.7185884,-4.0017078 c -1.7454984,2.3720609 -1.7354408,5.6174519 -6e-7,8.035443 z"
         transform="matrix(-1.1,0,0,-1.1,-1.1,0)"
         id="path3808-29"
         style="fill-rule:evenodd;stroke-width:0.625;stroke-linejoin:round" />
    </marker>
    <marker
       refX="0"
       refY="0"
       orient="auto"
       id="Arrow2Lend-2"
       style="overflow:visible">
      <path
         d="M 8.7185878,4.0337352 -2.2072895,0.01601326 8.7185884,-4.0017078 c -1.7454984,2.3720609 -1.7354408,5.6174519 -6e-7,8.035443 z"
         transform="matrix(-1.1,0,0,-1.1,-1.1,0)"
         id="path3808-7"
         style="fill-rule:evenodd;stroke-width:0.625;stroke-linejoin:round" />
    </marker>
  </defs>
  <metadata
     id="metadata7">
    <rdf:RDF>
      <cc:Work
         rdf:about="">
        <dc:format>image/svg+xml</dc:format>
        <dc:type
           rdf:resource="http://purl.org/dc/dcmitype/StillImage" />
        <dc:title></dc:title>
      </cc:Work>
    </rdf:RDF>
  </metadata>
  <g
     transform="translate(-16.831196,-362.83079)"
     id="layer1">
    <path
       d="M -29.999873,110.15927 A 100,100 0 0 1 69.761102,10.000285 L 70,110 z"
       transform="translate(307.14286,390)"
       id="slowsynthslice"
       style="fill:#00ff00;stroke:#000000;stroke-width:2;stroke-linejoin:miter;stroke-miterlimit:4;stroke-opacity:1;stroke-dasharray:none" />
    <path
       d="m 170,110 a 100,100 0 0 1 -199.999873,0.15927 L 70,110 z"
       transform="translate(307.14286,390)"
       id="slowenvslice"
       style="fill:#ff0000;stroke:#000000;stroke-width:2;stroke-linejoin:miter;stroke-miterlimit:4;stroke-opacity:1;stroke-dasharray:none" />
    <path
       d="M 69.761102,10.000285 A 100,100 0 0 1 170,110 l -100,0 z"
       transform="translate(307.14286,390)"
       id="slowrestslice"
       style="fill:#0000ff;stroke:#000000;stroke-width:2;stroke-linejoin:miter;stroke-miterlimit:4;stroke-opacity:1;stroke-dasharray:none" />
    <path
       d="M -0.71067881,180.71068 A 100,100 0 0 1 69.761102,10.000285 L 70,110 z"
       transform="translate(307.14286,640)"
       id="fastsynthslice"
       style="fill:#00ff00;stroke:#000000;stroke-width:2;stroke-linejoin:miter;stroke-miterlimit:4;stroke-opacity:1;stroke-dasharray:none" />
    <path
       d="m 140.71068,180.71068 a 100,100 0 0 1 -141.42135881,0 L 70,110 z"
       transform="translate(307.14286,640)"
       id="fastenvslice"
       style="fill:#ff0000;stroke:#000000;stroke-width:2;stroke-linejoin:miter;stroke-miterlimit:4;stroke-opacity:1;stroke-dasharray:none" />
    <path
       d="M 69.761102,10.000285 A 100,100 0 0 1 140.71068,180.71068 L 70,110 z"
       transform="translate(307.14286,640)"
       id="fastrestslice"
       style="fill:#0000ff;stroke:#000000;stroke-width:2;stroke-linejoin:miter;stroke-miterlimit:4;stroke-opacity:1;stroke-dasharray:none" />
    <path
       d="m 255,92 a 10,6 0 1 1 -20,0 10,6 0 1 1 20,0 z"
       transform="translate(297.14286,635)"
       id="ribhead1"
       style="fill:#00ff00;stroke:#000000;stroke-width:2;stroke-linejoin:miter;stroke-miterlimit:4;stroke-opacity:1;stroke-dasharray:none" />
    <path
       d="m 265,108 a 20,10 0 1 1 -40,0 20,10 0 1 1 40,0 z"
       transform="translate(297.14286,635)"
       id="ribbody1"
       style="fill:#00ff00;stroke:#000000;stroke-width:2;stroke-linejoin:miter;stroke-miterlimit:4;stroke-opacity:1;stroke-dasharray:none" />
    <rect
       width="300"
       height="80"
       rx="30"
       ry="30"
       x="507.14285"
       y="710"
       id="cell1"
       style="fill:none;stroke:#000000;stroke-width:3.30380845;stroke-linejoin:miter;stroke-miterlimit:4;stroke-opacity:1;stroke-dasharray:none" />
    <path
       d="m 300,92 a 10,6 0 1 1 -20,0 10,6 0 1 1 20,0 z"
       transform="translate(287.14286,660)"
       id="ribhead2"
       style="fill:#00ff00;stroke:#000000;stroke-width:2;stroke-linejoin:miter;stroke-miterlimit:4;stroke-opacity:1;stroke-dasharray:none" />
    <path
       d="m 310,108 a 20,10 0 1 1 -40,0 20,10 0 1 1 40,0 z"
       transform="translate(287.14286,660)"
       id="ribbody2"
       style="fill:#00ff00;stroke:#000000;stroke-width:2;stroke-linejoin:miter;stroke-miterlimit:4;stroke-opacity:1;stroke-dasharray:none" />
    <path
       d="m 326,95 a 16,16 0 1 1 -32,0 16,16 0 1 1 32,0 z"
       transform="translate(371.42857,641.42857)"
       id="restprot1"
       style="fill:#0000ff;stroke:#000000;stroke-width:2;stroke-linejoin:miter;stroke-miterlimit:4;stroke-opacity:1;stroke-dasharray:none" />
    <path
       d="m 386,95 a 16,16 0 1 1 -32,0 16,16 0 1 1 32,0 z"
       transform="translate(371.42857,641.42857)"
       id="envprot1"
       style="fill:#ff0000;stroke:#000000;stroke-width:2;stroke-linejoin:miter;stroke-miterlimit:4;stroke-opacity:1;stroke-dasharray:none" />
    <path
       d="m 356,125 a 16,16 0 1 1 -32,0 16,16 0 1 1 32,0 z"
       transform="translate(371.42857,641.42857)"
       id="restprot2"
       style="fill:#0000ff;stroke:#000000;stroke-width:2;stroke-linejoin:miter;stroke-miterlimit:4;stroke-opacity:1;stroke-dasharray:none" />
    <path
       d="m 416,125 a 16,16 0 1 1 -32,0 16,16 0 1 1 32,0 z"
       transform="translate(371.42857,641.42857)"
       id="envprot2"
       style="fill:#ff0000;stroke:#000000;stroke-width:2;stroke-linejoin:miter;stroke-miterlimit:4;stroke-opacity:1;stroke-dasharray:none" />
    <path
       d="m 255,92 a 10,6 0 1 1 -20,0 10,6 0 1 1 20,0 z"
       transform="translate(296.42857,382.36215)"
       id="ribhead1-3"
       style="fill:#00ff00;stroke:#000000;stroke-width:2;stroke-linejoin:miter;stroke-miterlimit:4;stroke-opacity:1;stroke-dasharray:none" />
    <path
       d="m 265,108 a 20,10 0 1 1 -40,0 20,10 0 1 1 40,0 z"
       transform="translate(296.42857,382.36215)"
       id="ribbody1-1"
       style="fill:#00ff00;stroke:#000000;stroke-width:2;stroke-linejoin:miter;stroke-miterlimit:4;stroke-opacity:1;stroke-dasharray:none" />
    <rect
       width="300"
       height="80"
       rx="30"
       ry="30"
       x="507.14285"
       y="460"
       id="cell2"
       style="fill:none;stroke:#000000;stroke-width:3.30380845;stroke-linejoin:miter;stroke-miterlimit:4;stroke-opacity:1;stroke-dasharray:none" />
    <path
       d="m 326,95 a 16,16 0 1 1 -32,0 16,16 0 1 1 32,0 z"
       transform="translate(375.71429,388.57143)"
       id="envprot3"
       style="fill:#ff0000;stroke:#000000;stroke-width:2;stroke-linejoin:miter;stroke-miterlimit:4;stroke-opacity:1;stroke-dasharray:none" />
    <path
       d="m 386,95 a 16,16 0 1 1 -32,0 16,16 0 1 1 32,0 z"
       transform="translate(375.71429,388.57143)"
       id="envprot5"
       style="fill:#ff0000;stroke:#000000;stroke-width:2;stroke-linejoin:miter;stroke-miterlimit:4;stroke-opacity:1;stroke-dasharray:none" />
    <path
       d="m 356,125 a 16,16 0 1 1 -32,0 16,16 0 1 1 32,0 z"
       transform="translate(375.71429,388.57143)"
       id="envprot4"
       style="fill:#ff0000;stroke:#000000;stroke-width:2;stroke-linejoin:miter;stroke-miterlimit:4;stroke-opacity:1;stroke-dasharray:none" />
    <path
       d="m 416,125 a 16,16 0 1 1 -32,0 16,16 0 1 1 32,0 z"
       transform="translate(375.71429,388.57143)"
       id="envprot6"
       style="fill:#ff0000;stroke:#000000;stroke-width:2;stroke-linejoin:miter;stroke-miterlimit:4;stroke-opacity:1;stroke-dasharray:none" />
    <path
       d="m 296,125 a 16,16 0 1 1 -32,0 16,16 0 1 1 32,0 z"
       transform="translate(347.14286,358.57143)"
       id="restprot3"
       style="fill:#0000ff;stroke:#000000;stroke-width:2;stroke-linejoin:miter;stroke-miterlimit:4;stroke-opacity:1;stroke-dasharray:none" />
    <path
       d="m 807.14286,502.85715 120,0"
       id="longArrow"
       style="fill:none;stroke:#000000;stroke-width:2px;stroke-linecap:butt;stroke-linejoin:miter;stroke-opacity:1;marker-end:url(#Arrow2Lend)" />
    <path
       d="m 807.14286,751.42857 60,0"
       id="shortArrow"
       style="fill:none;stroke:#000000;stroke-width:2px;stroke-linecap:butt;stroke-linejoin:miter;stroke-opacity:1;marker-end:url(#Arrow2Lend)" />
    <path
       d="m 296,125 a 16,16 0 1 1 -32,0 16,16 0 1 1 32,0 z"
       transform="translate(380,390.21928)"
       id="restprot3-8"
       style="fill:#0000ff;stroke:#000000;stroke-width:2;stroke-linejoin:miter;stroke-miterlimit:4;stroke-opacity:1;stroke-dasharray:none" />
    <path
       d="m 255,92 a 10,6 0 1 1 -20,0 10,6 0 1 1 20,0 z"
       transform="translate(343.57143,411.79072)"
       id="ribhead1-3-5"
       style="fill:#00ff00;stroke:#000000;stroke-width:2;stroke-linejoin:miter;stroke-miterlimit:4;stroke-opacity:1;stroke-dasharray:none" />
    <path
       d="m 265,108 a 20,10 0 1 1 -40,0 20,10 0 1 1 40,0 z"
       transform="translate(343.57143,411.79072)"
       id="ribbody1-1-0"
       style="fill:#00ff00;stroke:#000000;stroke-width:2;stroke-linejoin:miter;stroke-miterlimit:4;stroke-opacity:1;stroke-dasharray:none" />
    <path
       d="m 356,125 a 16,16 0 1 1 -32,0 16,16 0 1 1 32,0 z"
       transform="translate(312.57143,641.93357)"
       id="restprot2-6"
       style="fill:#0000ff;stroke:#000000;stroke-width:2;stroke-linejoin:miter;stroke-miterlimit:4;stroke-opacity:1;stroke-dasharray:none" />
    <path
       d="m 300,92 a 10,6 0 1 1 -20,0 10,6 0 1 1 20,0 z"
       transform="translate(320.28571,633.21929)"
       id="ribhead2-2"
       style="fill:#00ff00;stroke:#000000;stroke-width:2;stroke-linejoin:miter;stroke-miterlimit:4;stroke-opacity:1;stroke-dasharray:none" />
    <path
       d="m 310,108 a 20,10 0 1 1 -40,0 20,10 0 1 1 40,0 z"
       transform="translate(320.28571,633.21929)"
       id="ribbody2-8"
       style="fill:#00ff00;stroke:#000000;stroke-width:2;stroke-linejoin:miter;stroke-miterlimit:4;stroke-opacity:1;stroke-dasharray:none" />
    <path
       d="m 255,92 a 10,6 0 1 1 -20,0 10,6 0 1 1 20,0 z"
       transform="translate(743.57143,343.29572)"
       id="ribhead1-3-9"
       style="fill:#00ff00;stroke:#000000;stroke-width:2;stroke-linejoin:miter;stroke-miterlimit:4;stroke-opacity:1;stroke-dasharray:none" />
    <path
       d="m 265,108 a 20,10 0 1 1 -40,0 20,10 0 1 1 40,0 z"
       transform="translate(743.57143,343.29572)"
       id="ribbody1-1-5"
       style="fill:#00ff00;stroke:#000000;stroke-width:2;stroke-linejoin:miter;stroke-miterlimit:4;stroke-opacity:1;stroke-dasharray:none" />
    <rect
       width="300"
       height="80"
       rx="30"
       ry="30"
       x="954.28577"
       y="420.93353"
       id="cell2-8"
       style="fill:none;stroke:#000000;stroke-width:3.30380845;stroke-linejoin:miter;stroke-miterlimit:4;stroke-opacity:1;stroke-dasharray:none" />
    <path
       d="m 326,95 a 16,16 0 1 1 -32,0 16,16 0 1 1 32,0 z"
       transform="translate(822.85715,349.505)"
       id="envprot3-9"
       style="fill:#ff0000;stroke:#000000;stroke-width:2;stroke-linejoin:miter;stroke-miterlimit:4;stroke-opacity:1;stroke-dasharray:none" />
    <path
       d="m 386,95 a 16,16 0 1 1 -32,0 16,16 0 1 1 32,0 z"
       transform="translate(822.85715,349.505)"
       id="envprot5-6"
       style="fill:#ff0000;stroke:#000000;stroke-width:2;stroke-linejoin:miter;stroke-miterlimit:4;stroke-opacity:1;stroke-dasharray:none" />
    <path
       d="m 356,125 a 16,16 0 1 1 -32,0 16,16 0 1 1 32,0 z"
       transform="translate(822.85715,349.505)"
       id="envprot4-5"
       style="fill:#ff0000;stroke:#000000;stroke-width:2;stroke-linejoin:miter;stroke-miterlimit:4;stroke-opacity:1;stroke-dasharray:none" />
    <path
       d="m 416,125 a 16,16 0 1 1 -32,0 16,16 0 1 1 32,0 z"
       transform="translate(822.85715,349.505)"
       id="envprot6-8"
       style="fill:#ff0000;stroke:#000000;stroke-width:2;stroke-linejoin:miter;stroke-miterlimit:4;stroke-opacity:1;stroke-dasharray:none" />
    <path
       d="m 296,125 a 16,16 0 1 1 -32,0 16,16 0 1 1 32,0 z"
       transform="translate(794.28572,319.505)"
       id="restprot3-4"
       style="fill:#0000ff;stroke:#000000;stroke-width:2;stroke-linejoin:miter;stroke-miterlimit:4;stroke-opacity:1;stroke-dasharray:none" />
    <path
       d="m 296,125 a 16,16 0 1 1 -32,0 16,16 0 1 1 32,0 z"
       transform="translate(827.14287,351.15285)"
       id="restprot3-8-0"
       style="fill:#0000ff;stroke:#000000;stroke-width:2;stroke-linejoin:miter;stroke-miterlimit:4;stroke-opacity:1;stroke-dasharray:none" />
    <path
       d="m 255,92 a 10,6 0 1 1 -20,0 10,6 0 1 1 20,0 z"
       transform="translate(790.7143,372.72429)"
       id="ribhead1-3-5-0"
       style="fill:#00ff00;stroke:#000000;stroke-width:2;stroke-linejoin:miter;stroke-miterlimit:4;stroke-opacity:1;stroke-dasharray:none" />
    <path
       d="m 265,108 a 20,10 0 1 1 -40,0 20,10 0 1 1 40,0 z"
       transform="translate(790.7143,372.72429)"
       id="ribbody1-1-0-7"
       style="fill:#00ff00;stroke:#000000;stroke-width:2;stroke-linejoin:miter;stroke-miterlimit:4;stroke-opacity:1;stroke-dasharray:none" />
    <path
       d="m 255,92 a 10,6 0 1 1 -20,0 10,6 0 1 1 20,0 z"
       transform="translate(742.14285,433.29572)"
       id="ribhead1-3-6"
       style="fill:#00ff00;stroke:#000000;stroke-width:2;stroke-linejoin:miter;stroke-miterlimit:4;stroke-opacity:1;stroke-dasharray:none" />
    <path
       d="m 265,108 a 20,10 0 1 1 -40,0 20,10 0 1 1 40,0 z"
       transform="translate(742.14285,433.29572)"
       id="ribbody1-1-1"
       style="fill:#00ff00;stroke:#000000;stroke-width:2;stroke-linejoin:miter;stroke-miterlimit:4;stroke-opacity:1;stroke-dasharray:none" />
    <rect
       width="300"
       height="80"
       rx="30"
       ry="30"
       x="952.85718"
       y="510.93359"
       id="cell2-4"
       style="fill:none;stroke:#000000;stroke-width:3.30380845;stroke-linejoin:miter;stroke-miterlimit:4;stroke-opacity:1;stroke-dasharray:none" />
    <path
       d="m 326,95 a 16,16 0 1 1 -32,0 16,16 0 1 1 32,0 z"
       transform="translate(821.42857,439.505)"
       id="envprot3-2"
       style="fill:#ff0000;stroke:#000000;stroke-width:2;stroke-linejoin:miter;stroke-miterlimit:4;stroke-opacity:1;stroke-dasharray:none" />
    <path
       d="m 386,95 a 16,16 0 1 1 -32,0 16,16 0 1 1 32,0 z"
       transform="translate(821.42857,439.505)"
       id="envprot5-1"
       style="fill:#ff0000;stroke:#000000;stroke-width:2;stroke-linejoin:miter;stroke-miterlimit:4;stroke-opacity:1;stroke-dasharray:none" />
    <path
       d="m 356,125 a 16,16 0 1 1 -32,0 16,16 0 1 1 32,0 z"
       transform="translate(821.42857,439.505)"
       id="envprot4-8"
       style="fill:#ff0000;stroke:#000000;stroke-width:2;stroke-linejoin:miter;stroke-miterlimit:4;stroke-opacity:1;stroke-dasharray:none" />
    <path
       d="m 416,125 a 16,16 0 1 1 -32,0 16,16 0 1 1 32,0 z"
       transform="translate(821.42857,439.505)"
       id="envprot6-2"
       style="fill:#ff0000;stroke:#000000;stroke-width:2;stroke-linejoin:miter;stroke-miterlimit:4;stroke-opacity:1;stroke-dasharray:none" />
    <path
       d="m 296,125 a 16,16 0 1 1 -32,0 16,16 0 1 1 32,0 z"
       transform="translate(792.85714,409.505)"
       id="restprot3-1"
       style="fill:#0000ff;stroke:#000000;stroke-width:2;stroke-linejoin:miter;stroke-miterlimit:4;stroke-opacity:1;stroke-dasharray:none" />
    <path
       d="m 296,125 a 16,16 0 1 1 -32,0 16,16 0 1 1 32,0 z"
       transform="translate(825.71429,441.15285)"
       id="restprot3-8-01"
       style="fill:#0000ff;stroke:#000000;stroke-width:2;stroke-linejoin:miter;stroke-miterlimit:4;stroke-opacity:1;stroke-dasharray:none" />
    <path
       d="m 255,92 a 10,6 0 1 1 -20,0 10,6 0 1 1 20,0 z"
       transform="translate(789.28572,462.72429)"
       id="ribhead1-3-5-1"
       style="fill:#00ff00;stroke:#000000;stroke-width:2;stroke-linejoin:miter;stroke-miterlimit:4;stroke-opacity:1;stroke-dasharray:none" />
    <path
       d="m 265,108 a 20,10 0 1 1 -40,0 20,10 0 1 1 40,0 z"
       transform="translate(789.28572,462.72429)"
       id="ribbody1-1-0-0"
       style="fill:#00ff00;stroke:#000000;stroke-width:2;stroke-linejoin:miter;stroke-miterlimit:4;stroke-opacity:1;stroke-dasharray:none" />
    <path
       d="m 255,92 a 10,6 0 1 1 -20,0 10,6 0 1 1 20,0 z"
       transform="translate(685.71429,588.79072)"
       id="ribhead1-0"
       style="fill:#00ff00;stroke:#000000;stroke-width:2;stroke-linejoin:miter;stroke-miterlimit:4;stroke-opacity:1;stroke-dasharray:none" />
    <path
       d="m 265,108 a 20,10 0 1 1 -40,0 20,10 0 1 1 40,0 z"
       transform="translate(685.71429,588.79072)"
       id="ribbody1-4"
       style="fill:#00ff00;stroke:#000000;stroke-width:2;stroke-linejoin:miter;stroke-miterlimit:4;stroke-opacity:1;stroke-dasharray:none" />
    <rect
       width="300"
       height="80"
       rx="30"
       ry="30"
       x="895.71436"
       y="663.79071"
       id="cell1-4"
       style="fill:none;stroke:#000000;stroke-width:3.30380845;stroke-linejoin:miter;stroke-miterlimit:4;stroke-opacity:1;stroke-dasharray:none" />
    <path
       d="m 300,92 a 10,6 0 1 1 -20,0 10,6 0 1 1 20,0 z"
       transform="translate(675.71429,613.79072)"
       id="ribhead2-6"
       style="fill:#00ff00;stroke:#000000;stroke-width:2;stroke-linejoin:miter;stroke-miterlimit:4;stroke-opacity:1;stroke-dasharray:none" />
    <path
       d="m 310,108 a 20,10 0 1 1 -40,0 20,10 0 1 1 40,0 z"
       transform="translate(675.71429,613.79072)"
       id="ribbody2-6"
       style="fill:#00ff00;stroke:#000000;stroke-width:2;stroke-linejoin:miter;stroke-miterlimit:4;stroke-opacity:1;stroke-dasharray:none" />
    <path
       d="m 326,95 a 16,16 0 1 1 -32,0 16,16 0 1 1 32,0 z"
       transform="translate(760.00001,595.21929)"
       id="restprot1-6"
       style="fill:#0000ff;stroke:#000000;stroke-width:2;stroke-linejoin:miter;stroke-miterlimit:4;stroke-opacity:1;stroke-dasharray:none" />
    <path
       d="m 386,95 a 16,16 0 1 1 -32,0 16,16 0 1 1 32,0 z"
       transform="translate(760.00001,595.21929)"
       id="envprot1-4"
       style="fill:#ff0000;stroke:#000000;stroke-width:2;stroke-linejoin:miter;stroke-miterlimit:4;stroke-opacity:1;stroke-dasharray:none" />
    <path
       d="m 356,125 a 16,16 0 1 1 -32,0 16,16 0 1 1 32,0 z"
       transform="translate(760.00001,595.21929)"
       id="restprot2-4"
       style="fill:#0000ff;stroke:#000000;stroke-width:2;stroke-linejoin:miter;stroke-miterlimit:4;stroke-opacity:1;stroke-dasharray:none" />
    <path
       d="m 416,125 a 16,16 0 1 1 -32,0 16,16 0 1 1 32,0 z"
       transform="translate(760.00001,595.21929)"
       id="envprot2-7"
       style="fill:#ff0000;stroke:#000000;stroke-width:2;stroke-linejoin:miter;stroke-miterlimit:4;stroke-opacity:1;stroke-dasharray:none" />
    <path
       d="m 356,125 a 16,16 0 1 1 -32,0 16,16 0 1 1 32,0 z"
       transform="translate(701.14287,595.72429)"
       id="restprot2-6-0"
       style="fill:#0000ff;stroke:#000000;stroke-width:2;stroke-linejoin:miter;stroke-miterlimit:4;stroke-opacity:1;stroke-dasharray:none" />
    <path
       d="m 300,92 a 10,6 0 1 1 -20,0 10,6 0 1 1 20,0 z"
       transform="translate(708.85715,587.01001)"
       id="ribhead2-2-9"
       style="fill:#00ff00;stroke:#000000;stroke-width:2;stroke-linejoin:miter;stroke-miterlimit:4;stroke-opacity:1;stroke-dasharray:none" />
    <path
       d="m 310,108 a 20,10 0 1 1 -40,0 20,10 0 1 1 40,0 z"
       transform="translate(708.85715,587.01001)"
       id="ribbody2-8-0"
       style="fill:#00ff00;stroke:#000000;stroke-width:2;stroke-linejoin:miter;stroke-miterlimit:4;stroke-opacity:1;stroke-dasharray:none" />
    <path
       d="m 255,92 a 10,6 0 1 1 -20,0 10,6 0 1 1 20,0 z"
       transform="translate(684.28571,687.36215)"
       id="ribhead1-8"
       style="fill:#00ff00;stroke:#000000;stroke-width:2;stroke-linejoin:miter;stroke-miterlimit:4;stroke-opacity:1;stroke-dasharray:none" />
    <path
       d="m 265,108 a 20,10 0 1 1 -40,0 20,10 0 1 1 40,0 z"
       transform="translate(684.28571,687.36215)"
       id="ribbody1-13"
       style="fill:#00ff00;stroke:#000000;stroke-width:2;stroke-linejoin:miter;stroke-miterlimit:4;stroke-opacity:1;stroke-dasharray:none" />
    <rect
       width="300"
       height="80"
       rx="30"
       ry="30"
       x="894.28577"
       y="762.36218"
       id="cell1-0"
       style="fill:none;stroke:#000000;stroke-width:3.30380845;stroke-linejoin:miter;stroke-miterlimit:4;stroke-opacity:1;stroke-dasharray:none" />
    <path
       d="m 300,92 a 10,6 0 1 1 -20,0 10,6 0 1 1 20,0 z"
       transform="translate(674.28571,712.36215)"
       id="ribhead2-4"
       style="fill:#00ff00;stroke:#000000;stroke-width:2;stroke-linejoin:miter;stroke-miterlimit:4;stroke-opacity:1;stroke-dasharray:none" />
    <path
       d="m 310,108 a 20,10 0 1 1 -40,0 20,10 0 1 1 40,0 z"
       transform="translate(674.28571,712.36215)"
       id="ribbody2-7"
       style="fill:#00ff00;stroke:#000000;stroke-width:2;stroke-linejoin:miter;stroke-miterlimit:4;stroke-opacity:1;stroke-dasharray:none" />
    <path
       d="m 326,95 a 16,16 0 1 1 -32,0 16,16 0 1 1 32,0 z"
       transform="translate(758.57143,693.79072)"
       id="restprot1-0"
       style="fill:#0000ff;stroke:#000000;stroke-width:2;stroke-linejoin:miter;stroke-miterlimit:4;stroke-opacity:1;stroke-dasharray:none" />
    <path
       d="m 386,95 a 16,16 0 1 1 -32,0 16,16 0 1 1 32,0 z"
       transform="translate(758.57143,693.79072)"
       id="envprot1-7"
       style="fill:#ff0000;stroke:#000000;stroke-width:2;stroke-linejoin:miter;stroke-miterlimit:4;stroke-opacity:1;stroke-dasharray:none" />
    <path
       d="m 356,125 a 16,16 0 1 1 -32,0 16,16 0 1 1 32,0 z"
       transform="translate(758.57143,693.79072)"
       id="restprot2-46"
       style="fill:#0000ff;stroke:#000000;stroke-width:2;stroke-linejoin:miter;stroke-miterlimit:4;stroke-opacity:1;stroke-dasharray:none" />
    <path
       d="m 416,125 a 16,16 0 1 1 -32,0 16,16 0 1 1 32,0 z"
       transform="translate(758.57143,693.79072)"
       id="envprot2-2"
       style="fill:#ff0000;stroke:#000000;stroke-width:2;stroke-linejoin:miter;stroke-miterlimit:4;stroke-opacity:1;stroke-dasharray:none" />
    <path
       d="m 356,125 a 16,16 0 1 1 -32,0 16,16 0 1 1 32,0 z"
       transform="translate(699.71429,694.29572)"
       id="restprot2-6-6"
       style="fill:#0000ff;stroke:#000000;stroke-width:2;stroke-linejoin:miter;stroke-miterlimit:4;stroke-opacity:1;stroke-dasharray:none" />
    <path
       d="m 300,92 a 10,6 0 1 1 -20,0 10,6 0 1 1 20,0 z"
       transform="translate(707.42857,685.58144)"
       id="ribhead2-2-0"
       style="fill:#00ff00;stroke:#000000;stroke-width:2;stroke-linejoin:miter;stroke-miterlimit:4;stroke-opacity:1;stroke-dasharray:none" />
    <path
       d="m 310,108 a 20,10 0 1 1 -40,0 20,10 0 1 1 40,0 z"
       transform="translate(707.42857,685.58144)"
       id="ribbody2-8-1"
       style="fill:#00ff00;stroke:#000000;stroke-width:2;stroke-linejoin:miter;stroke-miterlimit:4;stroke-opacity:1;stroke-dasharray:none" />
    <flowRoot
       transform="translate(534.28572,809.38129)"
       id="flowRoot3340"
       xml:space="preserve"
       style="font-size:20px;font-style:normal;font-weight:normal;line-height:125%;letter-spacing:0px;word-spacing:0px;fill:#000000;fill-opacity:1;stroke:none;font-family:Sans"><flowRegion
         id="flowRegion3342"><rect
           width="292.85715"
           height="135.71429"
           x="-280"
           y="80.123711"
           id="rect3344" /></flowRegion><flowPara
         id="flowPara3383">Bio-synthesis genes</flowPara></flowRoot>    <text
       x="602.85712"
       y="903.79071"
       id="text3387"
       xml:space="preserve"
       style="font-size:20px;font-style:normal;font-weight:normal;line-height:125%;letter-spacing:0px;word-spacing:0px;fill:#000000;fill-opacity:1;stroke:none;font-family:Sans"><tspan
         x="602.85712"
         y="903.79071"
         id="tspan3391">Unregulated</tspan><tspan
         x="602.85712"
         y="928.79071"
         id="tspan3403">genes</tspan></text>
    <flowRoot
       transform="translate(0,527.95272)"
       id="flowRoot3395"
       xml:space="preserve"
       style="font-size:40px;font-style:normal;font-weight:normal;line-height:125%;letter-spacing:0px;word-spacing:0px;fill:#000000;fill-opacity:1;stroke:none;font-family:Sans"><flowRegion
         id="flowRegion3397"><rect
           width="391.42856"
           height="378.57144"
           x="-782.85712"
           y="211.55228"
           id="rect3399" /></flowRegion><flowPara
         id="flowPara3401"></flowPara></flowRoot>    <text
       x="897.14288"
       y="899.50488"
       id="text3405"
       xml:space="preserve"
       style="font-size:20px;font-style:normal;font-weight:normal;line-height:125%;letter-spacing:0px;word-spacing:0px;fill:#000000;fill-opacity:1;stroke:none;font-family:Sans"><tspan
         x="897.14288"
         y="899.50488"
         id="tspan3407">Condition-dependent</tspan><tspan
         x="897.14288"
         y="924.50488"
         id="tspan3409">genes</tspan></text>
    <flowRoot
       transform="translate(398.57143,440.80987)"
       id="flowRoot3507"
       xml:space="preserve"
       style="font-size:20px;font-style:normal;font-weight:normal;line-height:125%;letter-spacing:0px;word-spacing:0px;fill:#000000;fill-opacity:1;stroke:none;font-family:Sans"><flowRegion
         id="flowRegion3509"><rect
           width="215.71425"
           height="111.42858"
           x="-352.85715"
           y="-29.876291"
           id="rect3511" /></flowRegion><flowPara
         id="flowPara3515">Challenging growth  environment requires  many condition-dependent genes</flowPara></flowRoot>    <flowRoot
       transform="translate(1107.1429,596.52414)"
       id="flowRoot3519"
       xml:space="preserve"
       style="font-size:20px;font-style:normal;font-weight:normal;line-height:125%;letter-spacing:0px;word-spacing:0px;fill:#000000;fill-opacity:1;stroke:none;font-family:Sans"><flowRegion
         id="flowRegion3521"><rect
           width="228.57138"
           height="107.14288"
           x="-1060"
           y="50.123711"
           id="rect3523" /></flowRegion><flowPara
         id="flowPara3525">Permissive growth environment requires few condition-dependent genes</flowPara></flowRoot>    <flowRoot
       transform="translate(0,527.95272)"
       id="flowRoot3527"
       xml:space="preserve"
       style="font-size:40px;font-style:normal;font-weight:normal;line-height:125%;letter-spacing:0px;word-spacing:0px;fill:#000000;fill-opacity:1;stroke:none;font-family:Sans"><flowRegion
         id="flowRegion3529"><rect
           width="252.85715"
           height="305.71429"
           x="-622.85712"
           y="292.98087"
           id="rect3531" /></flowRegion><flowPara
         id="flowPara3533"></flowPara></flowRoot>    <rect
       width="48.571365"
       height="32.756683"
       ry="0"
       x="192.85713"
       y="885.21918"
       id="rect3535"
       style="fill:#00ff00" />
    <rect
       width="48.571365"
       height="32.756683"
       ry="0"
       x="531.42859"
       y="890.26947"
       id="rect3535-9"
       style="fill:#0000ff" />
    <rect
       width="48.571365"
       height="32.756683"
       ry="0"
       x="831.42859"
       y="887.41229"
       id="rect3535-0"
       style="fill:#ff0000" />
    <flowRoot
       transform="translate(424.28571,480.80987)"
       id="flowRoot3562"
       xml:space="preserve"
       style="font-size:20px;font-style:normal;font-weight:normal;line-height:125%;letter-spacing:0px;word-spacing:0px;fill:#000000;fill-opacity:1;stroke:none;font-family:Sans"><flowRegion
         id="flowRegion3564"><rect
           width="320.00003"
           height="61.428577"
           x="142.85715"
           y="-92.733437"
           id="rect3566" /></flowRegion><flowPara
         id="flowPara3568">Small fraction of bio-synthesis proteins implies slow growth</flowPara></flowRoot>    <flowRoot
       transform="translate(397.14286,470.80986)"
       id="flowRoot3570"
       xml:space="preserve"
       style="font-size:20px;font-style:normal;font-weight:normal;line-height:125%;letter-spacing:0px;word-spacing:0px;fill:#000000;fill-opacity:1;stroke:none;font-family:Sans"><flowRegion
         id="flowRegion3572"><rect
           width="309.99997"
           height="52.857143"
           x="174.28572"
           y="158.69514"
           id="rect3574" /></flowRegion><flowPara
         id="flowPara3576">Large fraction of bio-synthesis proteins implies fast growth</flowPara></flowRoot>  </g>
</svg>
